<svg fill="#a855f7" height="64px" width="64px" version="1.1" id="Layer_1" xmlns="http://www.w3.org/2000/svg" xmlns:xlink="http://www.w3.org/1999/xlink" viewBox="0 0 512.00 512.00" xml:space="preserve" stroke="#a855f7" transform="matrix(1, 0, 0, 1, 0, 0)">
  <g id="SVGRepo_bgCarrier" stroke-width="0"></g>
  <g id="SVGRepo_tracerCarrier" stroke-linecap="round" stroke-linejoin="round" stroke="#CCCCCC" stroke-width="1.0240019999999999">
    <g>
      <g>
        <g>
          <path d="M475.54,168.848V51.075c0-0.436-0.011-0.871-0.033-1.303c-0.692-22.735-19.39-41.02-42.29-41.02 c-23.337,0-42.323,18.985-42.323,42.322v74.99c-5.001-0.558-10.08-0.855-15.229-0.855c-5.17,0-10.36,0.297-15.52,0.886v-75.02 c0-0.436-0.011-0.871-0.033-1.303c-0.693-22.735-19.39-41.02-42.29-41.02c-23.337,0-42.323,18.985-42.323,42.322v117.998 c-7.414,8.026-13.816,16.868-19.095,26.374h-89.379c-23.081,0-45.066,5.683-64.479,15.82 c-9.643-10.418-23.222-16.473-37.652-16.473c-28.304,0-51.331,23.027-51.331,51.332c0,17.068,8.262,32.613,21.978,42.128 c-1.968,5.55-3.602,11.271-4.868,17.146C11.962,320.749,0,344.038,0,370.073v49.546c0,46.114,37.516,83.63,83.63,83.63h348.739 c11.138,0,20.2-9.062,20.2-20.2c0-21.43-11.824-40.822-29.954-50.953c16.448-16.941,28.616-38.017,34.807-61.448 c34.232-25.698,54.579-66.252,54.579-109.105C512,225.778,498.149,193.192,475.54,168.848z M450.199,42.299 c4.839,0,8.776,3.937,8.776,8.776v94.254c0,2.453-1.023,4.711-2.711,6.329c-4.725-3.475-9.681-6.653-14.842-9.507V51.075 C441.421,46.236,445.359,42.299,450.199,42.299z M433.216,25.317c3.21,0,6.282,0.595,9.119,1.673 c-10.134,3.317-17.478,12.857-17.478,24.085v83.322c-5.63-2.185-11.439-4.006-17.399-5.435V51.075h-0.001 C407.458,36.872,419.013,25.317,433.216,25.317z M334.805,42.299c4.839,0,8.776,3.937,8.776,8.776v94.254 c0,4.839-3.937,8.776-8.777,8.776c-4.839,0-8.776-3.937-8.776-8.776V51.075C326.028,46.236,329.966,42.299,334.805,42.299z M30.128,246.125c0-19.171,15.597-34.768,34.766-34.768c8.588,0,16.738,3.165,23.023,8.722 c-19.217,13.238-35.041,31.214-45.67,52.426C34.633,265.999,30.128,256.482,30.128,246.125z M195.719,486.685H83.63 c-36.981,0-67.066-30.085-67.066-67.066v-49.546c0-36.981,30.085-67.066,67.066-67.066c36.979,0,67.065,30.085,67.065,67.066 v49.546c0,3.92-0.363,7.931-1.079,11.923c-0.432,2.408,0.224,4.884,1.791,6.764c1.567,1.879,3.885,2.971,6.332,2.979 c22.947,0.082,41.615,18.818,41.615,41.764C199.355,485.054,197.724,486.685,195.719,486.685z M215.574,486.684 c0.215-1.181,0.346-2.392,0.346-3.634c0-2.931-0.229-5.81-0.649-8.628h17.819c2.098,4.489,4.841,8.619,8.118,12.262H215.574z M353.399,486.685h-75.113c-18.365,0-33.308-14.942-33.308-33.308v-112.71c0-18.366,14.941-33.308,33.308-33.308 c18.365,0,33.308,14.941,33.308,33.308v92.551c0,4.281,3.263,7.858,7.528,8.248c21.613,1.977,37.911,19.853,37.911,41.583 C357.033,485.054,355.404,486.685,353.399,486.685z M436.005,483.05c0,2.004-1.631,3.635-3.635,3.635h-59.116 c0.215-1.182,0.346-2.393,0.346-3.635c0-6.017-0.898-11.821-2.569-17.283c13.98-5.182,26.885-12.543,38.32-21.65 C425.23,450.28,436.005,465.736,436.005,483.05z M445.3,358.998c-1.619,1.158-2.765,2.861-3.231,4.797 c-9.693,40.289-39.349,73.05-78.147,86.914c-8.108-12.239-20.747-21.223-35.763-24.565v-85.478 c0-27.499-22.372-49.872-49.872-49.872c-27.499,0-49.872,22.372-49.872,49.872v112.71c0,1.511,0.08,3.004,0.211,4.481h-18.447 c-8.114-16.846-24.091-29.243-43.132-32.369c0.141-1.967,0.212-3.926,0.212-5.87v-49.546c0-46.114-37.516-83.63-83.629-83.63 c-11.376,0-22.225,2.291-32.121,6.424c17.383-47.808,63.254-80.855,115.516-80.855h94.357c3.121,0,5.976-1.754,7.387-4.538 c5.453-10.757,12.503-20.626,20.955-29.333c1.5-1.545,2.339-3.614,2.339-5.769V51.075c0-14.202,11.555-25.758,25.759-25.758 c3.21,0,6.282,0.595,9.119,1.673c-10.134,3.316-17.478,12.857-17.478,24.085v94.254c0,13.973,11.368,25.34,25.34,25.34 c13.973,0,25.341-11.368,25.341-25.34v-2.539c5.151-0.67,10.348-1.015,15.52-1.015c66.042,0,119.771,53.728,119.771,119.769 C495.436,300.092,476.692,336.523,445.3,358.998z"></path>
          <path d="M435.315,243.912h-22.402c-7.556,0-9.29,4.295-3.854,9.543l6.062,5.853c5.435,5.249,14.174,5.093,19.419-0.346 l4.977-5.16C444.76,248.362,442.87,243.912,435.315,243.912z"></path>
          <circle cx="379.978" cy="224.021" r="8.842"></circle>
          <circle cx="457.892" cy="224.021" r="8.842"></circle>
        </g>
      </g>
    </g>
  </g>
  <g id="SVGRepo_iconCarrier">
    <g>
      <g>
        <g>
          <path d="M475.54,168.848V51.075c0-0.436-0.011-0.871-0.033-1.303c-0.692-22.735-19.39-41.02-42.29-41.02 c-23.337,0-42.323,18.985-42.323,42.322v74.99c-5.001-0.558-10.08-0.855-15.229-0.855c-5.17,0-10.36,0.297-15.52,0.886v-75.02 c0-0.436-0.011-0.871-0.033-1.303c-0.693-22.735-19.39-41.02-42.29-41.02c-23.337,0-42.323,18.985-42.323,42.322v117.998 c-7.414,8.026-13.816,16.868-19.095,26.374h-89.379c-23.081,0-45.066,5.683-64.479,15.82 c-9.643-10.418-23.222-16.473-37.652-16.473c-28.304,0-51.331,23.027-51.331,51.332c0,17.068,8.262,32.613,21.978,42.128 c-1.968,5.55-3.602,11.271-4.868,17.146C11.962,320.749,0,344.038,0,370.073v49.546c0,46.114,37.516,83.63,83.63,83.63h348.739 c11.138,0,20.2-9.062,20.2-20.2c0-21.43-11.824-40.822-29.954-50.953c16.448-16.941,28.616-38.017,34.807-61.448 c34.232-25.698,54.579-66.252,54.579-109.105C512,225.778,498.149,193.192,475.54,168.848z M450.199,42.299 c4.839,0,8.776,3.937,8.776,8.776v94.254c0,2.453-1.023,4.711-2.711,6.329c-4.725-3.475-9.681-6.653-14.842-9.507V51.075 C441.421,46.236,445.359,42.299,450.199,42.299z M433.216,25.317c3.21,0,6.282,0.595,9.119,1.673 c-10.134,3.317-17.478,12.857-17.478,24.085v83.322c-5.63-2.185-11.439-4.006-17.399-5.435V51.075h-0.001 C407.458,36.872,419.013,25.317,433.216,25.317z M334.805,42.299c4.839,0,8.776,3.937,8.776,8.776v94.254 c0,4.839-3.937,8.776-8.777,8.776c-4.839,0-8.776-3.937-8.776-8.776V51.075C326.028,46.236,329.966,42.299,334.805,42.299z M30.128,246.125c0-19.171,15.597-34.768,34.766-34.768c8.588,0,16.738,3.165,23.023,8.722 c-19.217,13.238-35.041,31.214-45.67,52.426C34.633,265.999,30.128,256.482,30.128,246.125z M195.719,486.685H83.63 c-36.981,0-67.066-30.085-67.066-67.066v-49.546c0-36.981,30.085-67.066,67.066-67.066c36.979,0,67.065,30.085,67.065,67.066 v49.546c0,3.92-0.363,7.931-1.079,11.923c-0.432,2.408,0.224,4.884,1.791,6.764c1.567,1.879,3.885,2.971,6.332,2.979 c22.947,0.082,41.615,18.818,41.615,41.764C199.355,485.054,197.724,486.685,195.719,486.685z M215.574,486.684 c0.215-1.181,0.346-2.392,0.346-3.634c0-2.931-0.229-5.81-0.649-8.628h17.819c2.098,4.489,4.841,8.619,8.118,12.262H215.574z M353.399,486.685h-75.113c-18.365,0-33.308-14.942-33.308-33.308v-112.71c0-18.366,14.941-33.308,33.308-33.308 c18.365,0,33.308,14.941,33.308,33.308v92.551c0,4.281,3.263,7.858,7.528,8.248c21.613,1.977,37.911,19.853,37.911,41.583 C357.033,485.054,355.404,486.685,353.399,486.685z M436.005,483.05c0,2.004-1.631,3.635-3.635,3.635h-59.116 c0.215-1.182,0.346-2.393,0.346-3.635c0-6.017-0.898-11.821-2.569-17.283c13.98-5.182,26.885-12.543,38.32-21.65 C425.23,450.28,436.005,465.736,436.005,483.05z M445.3,358.998c-1.619,1.158-2.765,2.861-3.231,4.797 c-9.693,40.289-39.349,73.05-78.147,86.914c-8.108-12.239-20.747-21.223-35.763-24.565v-85.478 c0-27.499-22.372-49.872-49.872-49.872c-27.499,0-49.872,22.372-49.872,49.872v112.71c0,1.511,0.08,3.004,0.211,4.481h-18.447 c-8.114-16.846-24.091-29.243-43.132-32.369c0.141-1.967,0.212-3.926,0.212-5.87v-49.546c0-46.114-37.516-83.63-83.629-83.63 c-11.376,0-22.225,2.291-32.121,6.424c17.383-47.808,63.254-80.855,115.516-80.855h94.357c3.121,0,5.976-1.754,7.387-4.538 c5.453-10.757,12.503-20.626,20.955-29.333c1.5-1.545,2.339-3.614,2.339-5.769V51.075c0-14.202,11.555-25.758,25.759-25.758 c3.21,0,6.282,0.595,9.119,1.673c-10.134,3.316-17.478,12.857-17.478,24.085v94.254c0,13.973,11.368,25.34,25.34,25.34 c13.973,0,25.341-11.368,25.341-25.34v-2.539c5.151-0.67,10.348-1.015,15.52-1.015c66.042,0,119.771,53.728,119.771,119.769 C495.436,300.092,476.692,336.523,445.3,358.998z"></path>
          <path d="M435.315,243.912h-22.402c-7.556,0-9.29,4.295-3.854,9.543l6.062,5.853c5.435,5.249,14.174,5.093,19.419-0.346 l4.977-5.16C444.76,248.362,442.87,243.912,435.315,243.912z"></path>
          <circle cx="379.978" cy="224.021" r="8.842"></circle>
          <circle cx="457.892" cy="224.021" r="8.842"></circle>
        </g>
      </g>
    </g>
  </g>
</svg>